<?xml version="1.0" encoding="UTF-8" standalone="no"?>
<!DOCTYPE svg PUBLIC "-//W3C//DTD SVG 1.1//EN" "http://www.w3.org/Graphics/SVG/1.1/DTD/svg11.dtd">
<svg width="100%" height="100%" viewBox="0 0 700 227" version="1.1" xmlns="http://www.w3.org/2000/svg" xmlns:xlink="http://www.w3.org/1999/xlink" xml:space="preserve" xmlns:serif="http://www.serif.com/" style="fill-rule:evenodd;clip-rule:evenodd;stroke-linecap:round;stroke-linejoin:round;stroke-miterlimit:10;">
    <g>
        <text x="205.449px" y="77.441px" style="font-family:'Arial-BoldMT', 'Arial', sans-serif;font-weight:700;font-size:15px;fill:rgb(70,70,72);">complicated</text>
        <text x="205.449px" y="92.932px" style="font-family:'Arial-BoldMT', 'Arial', sans-serif;font-weight:700;font-size:15px;fill:rgb(70,70,72);">star</text>
        <text x="232.966px" y="92.932px" style="font-family:'Arial-BoldMT', 'Arial', sans-serif;font-weight:700;font-size:15px;fill:rgb(70,70,72);">s</text>
    </g>
    <g>
        <text x="480.178px" y="75.298px" style="font-family:'Arial-BoldMT', 'Arial', sans-serif;font-weight:700;font-size:15px;fill:rgb(70,70,72);">simpl</text>
        <text x="519.355px" y="75.298px" style="font-family:'Arial-BoldMT', 'Arial', sans-serif;font-weight:700;font-size:15px;fill:rgb(70,70,72);">e</text>
        <text x="491.838px" y="90.789px" style="font-family:'Arial-BoldMT', 'Arial', sans-serif;font-weight:700;font-size:15px;fill:rgb(70,70,72);">star</text>
        <text x="519.355px" y="90.789px" style="font-family:'Arial-BoldMT', 'Arial', sans-serif;font-weight:700;font-size:15px;fill:rgb(70,70,72);">s</text>
    </g>
    <g>
        <text x="164.671px" y="171.583px" style="font-family:'Arial-BoldMT', 'Arial', sans-serif;font-weight:700;font-size:13px;fill:rgb(88,89,91);">small</text>
        <text x="164.671px" y="185.009px" style="font-family:'Arial-BoldMT', 'Arial', sans-serif;font-weight:700;font-size:13px;fill:rgb(88,89,91);">star</text>
        <text x="188.519px" y="185.009px" style="font-family:'Arial-BoldMT', 'Arial', sans-serif;font-weight:700;font-size:13px;fill:rgb(88,89,91);">s</text>
    </g>
    <g>
        <text x="389.368px" y="172.324px" style="font-family:'Arial-BoldMT', 'Arial', sans-serif;font-weight:700;font-size:13px;fill:rgb(88,89,91);">small</text>
        <text x="389.368px" y="185.749px" style="font-family:'Arial-BoldMT', 'Arial', sans-serif;font-weight:700;font-size:13px;fill:rgb(88,89,91);">star</text>
        <text x="413.216px" y="185.749px" style="font-family:'Arial-BoldMT', 'Arial', sans-serif;font-weight:700;font-size:13px;fill:rgb(88,89,91);">s</text>
    </g>
    <g>
        <text x="322.548px" y="171.526px" style="font-family:'Arial-BoldMT', 'Arial', sans-serif;font-weight:700;font-size:13px;fill:rgb(88,89,91);">large</text>
        <text x="322.542px" y="184.952px" style="font-family:'Arial-BoldMT', 'Arial', sans-serif;font-weight:700;font-size:13px;fill:rgb(88,89,91);">star</text>
        <text x="346.39px" y="184.952px" style="font-family:'Arial-BoldMT', 'Arial', sans-serif;font-weight:700;font-size:13px;fill:rgb(88,89,91);">s</text>
    </g>
    <g>
        <text x="547.01px" y="171.689px" style="font-family:'Arial-BoldMT', 'Arial', sans-serif;font-weight:700;font-size:13px;fill:rgb(88,89,91);">large</text>
        <text x="547.004px" y="185.114px" style="font-family:'Arial-BoldMT', 'Arial', sans-serif;font-weight:700;font-size:13px;fill:rgb(88,89,91);">star</text>
        <text x="570.852px" y="185.114px" style="font-family:'Arial-BoldMT', 'Arial', sans-serif;font-weight:700;font-size:13px;fill:rgb(88,89,91);">s</text>
    </g>
    <g>
        <text x="7.017px" y="28.867px" style="font-family:'Arial-BoldMT', 'Arial', sans-serif;font-weight:700;font-size:15px;fill:rgb(108,107,107);">Root level: all dat</text>
        <text x="131.207px" y="28.867px" style="font-family:'Arial-BoldMT', 'Arial', sans-serif;font-weight:700;font-size:15px;fill:rgb(108,107,107);">a</text>
        <text x="7.01px" y="83.677px" style="font-family:'Arial-BoldMT', 'Arial', sans-serif;font-weight:700;font-size:15px;fill:rgb(108,107,107);">First spli</text>
        <text x="69.522px" y="83.677px" style="font-family:'Arial-BoldMT', 'Arial', sans-serif;font-weight:700;font-size:15px;fill:rgb(108,107,107);">t</text>
    </g>
    <g>
        <text x="7.574px" y="181.819px" style="font-family:'Arial-BoldMT', 'Arial', sans-serif;font-weight:700;font-size:15px;fill:rgb(108,107,107);">Second spli</text>
        <text x="91.758px" y="181.819px" style="font-family:'Arial-BoldMT', 'Arial', sans-serif;font-weight:700;font-size:15px;fill:rgb(108,107,107);">t</text>
    </g>
    <g>
        <text x="624.665px" y="29.95px" style="font-family:'Arial-BoldMT', 'Arial', sans-serif;font-weight:700;font-size:15px;">Depth =</text>
        <text x="684.255px" y="29.95px" style="font-family:'Arial-BoldMT', 'Arial', sans-serif;font-weight:700;font-size:15px;">0</text>
    </g>
    <g>
        <text x="626.365px" y="127.652px" style="font-family:'Arial-BoldMT', 'Arial', sans-serif;font-weight:700;font-size:15px;">Depth =</text>
        <text x="685.955px" y="127.652px" style="font-family:'Arial-BoldMT', 'Arial', sans-serif;font-weight:700;font-size:15px;">1</text>
    </g>
    <g>
        <text x="624.68px" y="216.307px" style="font-family:'Arial-BoldMT', 'Arial', sans-serif;font-weight:700;font-size:15px;">Depth =</text>
        <text x="684.27px" y="216.307px" style="font-family:'Arial-BoldMT', 'Arial', sans-serif;font-weight:700;font-size:15px;">2</text>
    </g>
    <g transform="matrix(1,0,0,1,0,-133.998)">
        <path d="M420.067,167.685L423.219,177.474L433.417,177.474L425.167,183.524L428.318,193.313L420.067,187.263L411.817,193.313L414.968,183.524L406.718,177.474L416.916,177.474L420.067,167.685Z" style="fill:rgb(237,28,36);"/>
    </g>
    <g transform="matrix(1,0,0,1,0,-195.688)">
        <path d="M439.933,198.53L443.084,208.319L453.283,208.319L445.032,214.369L448.183,224.158L439.933,218.108L431.682,224.158L434.833,214.369L426.583,208.319L436.781,208.319L439.933,198.53Z" style="fill:rgb(243,111,33);"/>
    </g>
    <g transform="matrix(1,0,0,1,0,-199.784)">
        <path d="M367.026,200.578L370.178,210.367L380.376,210.367L372.125,216.417L375.277,226.206L367.026,220.156L358.776,226.206L361.927,216.417L353.676,210.367L363.875,210.367L367.026,200.578Z" style="fill:rgb(243,112,82);"/>
    </g>
    <g transform="matrix(1,0,0,1,0,-178.408)">
        <path d="M391.348,193.185L393.689,200.457L401.265,200.457L395.136,204.951L397.477,212.223L391.348,207.729L385.218,212.223L387.56,204.951L381.43,200.457L389.007,200.457L391.348,193.185Z" style="fill:rgb(250,167,74);"/>
    </g>
    <g transform="matrix(1,0,0,1,0,-199.619)">
        <path d="M299.485,203.79L301.826,211.062L309.403,211.062L303.273,215.557L305.615,222.829L299.485,218.334L293.356,222.829L295.697,215.557L289.568,211.062L297.144,211.062L299.485,203.79Z" style="fill:rgb(250,166,25);"/>
    </g>
    <g transform="matrix(1,0,0,1,0,-126.289)">
        <path d="M351.286,167.125L353.628,174.397L361.204,174.397L355.075,178.892L357.416,186.164L351.286,181.669L345.157,186.164L347.498,178.892L341.369,174.397L348.945,174.397L351.286,167.125Z" style="fill:rgb(255,204,49);"/>
    </g>
    <g transform="matrix(1,0,0,1,0,-183.978)">
        <path d="M411.268,194.974L412.687,200.15L415.484,198.122L415.143,201.58L420.294,200.232L416.561,204.058L419.7,205.489L416.561,206.92L420.294,210.747L415.143,209.398L415.484,212.856L412.687,210.829L411.268,216.004L409.85,210.829L407.053,212.856L407.394,209.398L402.243,210.747L405.976,206.92L402.837,205.489L405.976,204.058L402.243,200.232L407.394,201.58L407.053,198.122L409.85,200.15L411.268,194.974Z" style="fill:rgb(46,48,146);"/>
    </g>
    <g transform="matrix(1,0,0,1,0,-146.662)">
        <path d="M296.201,176.316L297.619,181.491L300.417,179.464L300.076,182.922L305.227,181.574L301.494,185.4L304.633,186.831L301.494,188.262L305.227,192.089L300.076,190.74L300.417,194.198L297.619,192.171L296.201,197.346L294.783,192.171L291.985,194.198L292.327,190.74L287.175,192.089L290.909,188.262L287.77,186.831L290.909,185.4L287.175,181.574L292.327,182.922L291.985,179.464L294.783,181.491L296.201,176.316Z" style="fill:rgb(0,125,197);"/>
    </g>
    <g transform="matrix(1,0,0,1,0,-121.694)">
        <path d="M448.153,163.832L449.571,169.007L452.369,166.979L452.027,170.438L457.179,169.089L453.445,172.916L456.585,174.347L453.445,175.777L457.179,179.604L452.027,178.256L452.369,181.714L449.571,179.686L448.153,184.862L446.735,179.686L443.937,181.714L444.279,178.256L439.127,179.604L442.86,175.777L439.721,174.347L442.86,172.916L439.127,169.089L444.279,170.438L443.937,166.979L446.735,169.007L448.153,163.832Z" style="fill:rgb(0,90,170);"/>
    </g>
    <g transform="matrix(1,0,0,1,0,-182.691)">
        <path d="M335.04,189.702L337.082,197.156L341.111,194.236L340.62,199.216L348.038,197.274L342.662,202.785L347.183,204.846L342.662,206.906L348.038,212.417L340.62,210.475L341.111,215.456L337.082,212.536L335.04,219.989L332.997,212.536L328.968,215.456L329.46,210.475L322.041,212.417L327.418,206.906L322.897,204.846L327.418,202.785L322.041,197.274L329.46,199.216L328.968,194.236L332.997,197.156L335.04,189.702Z" style="fill:rgb(0,110,124);"/>
    </g>
    <g transform="matrix(1,0,0,1,0,-128.615)">
        <path d="M378.686,162.664L380.728,170.117L384.758,167.198L384.266,172.178L391.685,170.236L386.308,175.747L390.829,177.807L386.308,179.868L391.685,185.379L384.266,183.437L384.758,188.417L380.728,185.497L378.686,192.951L376.644,185.497L372.615,188.417L373.106,183.437L365.687,185.379L371.064,179.868L366.543,177.807L371.064,175.747L365.687,170.236L373.106,172.178L372.615,167.198L376.644,170.117L378.686,162.664Z" style="fill:rgb(0,166,80);"/>
    </g>
    <g transform="matrix(1,0,0,1,0,-125.683)">
        <path d="M322.632,161.198L324.674,168.651L328.703,165.732L328.211,170.712L335.63,168.77L330.254,174.281L334.775,176.341L330.254,178.402L335.63,183.913L328.211,181.971L328.703,186.951L324.674,184.031L322.632,191.485L320.589,184.031L316.56,186.951L317.052,181.971L309.633,183.913L315.01,178.402L310.489,176.341L315.01,174.281L309.633,168.77L317.052,170.712L316.56,165.732L320.589,168.651L322.632,161.198Z" style="fill:rgb(26,93,65);"/>
    </g>
    <g transform="matrix(1,0,0,1,0,193.329)">
        <path d="M566.833,4.022L569.985,13.811L580.183,13.811L571.933,19.86L575.084,29.649L566.833,23.6L558.583,29.649L561.734,19.86L553.483,13.811L563.682,13.811L566.833,4.022Z" style="fill:rgb(237,28,36);"/>
    </g>
    <g transform="matrix(1,0,0,1,0,193.329)">
        <path d="M537.041,4.022L540.193,13.811L550.391,13.811L542.141,19.86L545.292,29.649L537.041,23.6L528.791,29.649L531.942,19.86L523.691,13.811L533.89,13.811L537.041,4.022Z" style="fill:rgb(243,111,33);"/>
    </g>
    <g transform="matrix(1,0,0,1,0,193.329)">
        <path d="M508.033,4.022L511.185,13.811L521.383,13.811L513.133,19.86L516.284,29.649L508.033,23.6L499.783,29.649L502.934,19.86L494.683,13.811L504.882,13.811L508.033,4.022Z" style="fill:rgb(243,112,82);"/>
    </g>
    <g transform="matrix(1,0,0,1,0,193.329)">
        <path d="M425.592,7.316L427.934,14.588L435.51,14.588L429.381,19.083L431.722,26.355L425.592,21.86L419.463,26.355L421.804,19.083L415.675,14.588L423.251,14.588L425.592,7.316Z" style="fill:rgb(250,167,74);"/>
    </g>
    <g transform="matrix(1,0,0,1,0,193.329)">
        <path d="M450.5,7.316L452.841,14.588L460.417,14.588L454.288,19.083L456.629,26.355L450.5,21.86L444.37,26.355L446.712,19.083L440.582,14.588L448.159,14.588L450.5,7.316Z" style="fill:rgb(250,166,25);"/>
    </g>
    <g transform="matrix(1,0,0,1,0,193.329)">
        <path d="M401.663,7.316L404.004,14.588L411.581,14.588L405.451,19.083L407.792,26.355L401.663,21.86L395.534,26.355L397.875,19.083L391.746,14.588L399.322,14.588L401.663,7.316Z" style="fill:rgb(255,204,49);"/>
    </g>
    <g transform="matrix(1,0,0,1,0,57.1249)">
        <path d="M482.42,72.124L485.572,81.913L495.77,81.913L487.519,87.962L490.671,97.751L482.42,91.701L474.169,97.751L477.321,87.962L469.07,81.913L479.269,81.913L482.42,72.124Z" style="fill:rgb(237,28,36);"/>
    </g>
    <g transform="matrix(1,0,0,1,0,6.2419)">
        <path d="M448.88,97.565L452.031,107.354L462.23,107.354L453.979,113.404L457.131,123.193L448.88,117.143L440.629,123.193L443.781,113.404L435.53,107.354L445.728,107.354L448.88,97.565Z" style="fill:rgb(243,111,33);"/>
    </g>
    <g transform="matrix(1,0,0,1,0,8.7153)">
        <path d="M510.418,96.329L513.569,106.117L523.767,106.117L515.517,112.167L518.668,121.956L510.418,115.906L502.167,121.956L505.318,112.167L497.068,106.117L507.266,106.117L510.418,96.329Z" style="fill:rgb(243,112,82);"/>
    </g>
    <g transform="matrix(1,0,0,1,0,57.1484)">
        <path d="M453.048,75.407L455.389,82.679L462.965,82.679L456.836,87.173L459.177,94.445L453.048,89.951L446.919,94.445L449.26,87.173L443.131,82.679L450.707,82.679L453.048,75.407Z" style="fill:rgb(250,167,74);"/>
    </g>
    <g transform="matrix(1,0,0,1,0,4.812)">
        <path d="M482.23,101.575L484.571,108.847L492.147,108.847L486.018,113.341L488.359,120.613L482.23,116.119L476.1,120.613L478.442,113.341L472.312,108.847L479.889,108.847L482.23,101.575Z" style="fill:rgb(250,166,25);"/>
    </g>
    <g transform="matrix(1,0,0,1,0,55.4902)">
        <path d="M506.629,76.236L508.971,83.508L516.547,83.508L510.417,88.002L512.759,95.274L506.629,90.78L500.5,95.274L502.841,88.002L496.712,83.508L504.288,83.508L506.629,76.236Z" style="fill:rgb(255,204,49);"/>
    </g>
    <g transform="matrix(1,0,0,1,0,193.329)">
        <path d="M182.295,6.32L183.713,11.496L186.511,9.468L186.169,12.927L191.321,11.578L187.588,15.405L190.727,16.836L187.588,18.266L191.321,22.093L186.169,20.744L186.511,24.203L183.713,22.175L182.295,27.351L180.877,22.175L178.079,24.203L178.421,20.744L173.269,22.093L177.002,18.266L173.863,16.836L177.002,15.405L173.269,11.578L178.421,12.927L178.079,9.468L180.877,11.496L182.295,6.32Z" style="fill:rgb(46,48,146);"/>
    </g>
    <g transform="matrix(1,0,0,1,0,193.329)">
        <path d="M231.343,6.32L232.761,11.496L235.559,9.468L235.217,12.927L240.369,11.578L236.635,15.405L239.774,16.836L236.635,18.266L240.369,22.093L235.217,20.744L235.559,24.203L232.761,22.175L231.343,27.351L229.925,22.175L227.127,24.203L227.468,20.744L222.317,22.093L226.05,18.266L222.911,16.836L226.05,15.405L222.317,11.578L227.468,12.927L227.127,9.468L229.925,11.496L231.343,6.32Z" style="fill:rgb(0,125,197);"/>
    </g>
    <g transform="matrix(1,0,0,1,0,193.329)">
        <path d="M207.108,6.32L208.526,11.496L211.324,9.468L210.982,12.927L216.134,11.578L212.401,15.405L215.54,16.836L212.401,18.266L216.134,22.093L210.982,20.744L211.324,24.203L208.526,22.175L207.108,27.351L205.69,22.175L202.892,24.203L203.234,20.744L198.082,22.093L201.815,18.266L198.676,16.836L201.815,15.405L198.082,11.578L203.234,12.927L202.892,9.468L205.69,11.496L207.108,6.32Z" style="fill:rgb(0,90,170);"/>
    </g>
    <g transform="matrix(1,0,0,1,0,193.329)">
        <path d="M284.366,1.692L286.408,9.146L290.437,6.226L289.946,11.206L297.365,9.264L291.988,14.775L296.509,16.836L291.988,18.896L297.365,24.407L289.946,22.465L290.437,27.445L286.408,24.526L284.366,31.979L282.324,24.526L278.295,27.445L278.786,22.465L271.367,24.407L276.744,18.896L272.223,16.836L276.744,14.775L271.367,9.264L278.786,11.206L278.295,6.226L282.324,9.146L284.366,1.692Z" style="fill:rgb(0,110,124);"/>
    </g>
    <g transform="matrix(1,0,0,1,0,193.329)">
        <path d="M349.264,1.692L351.306,9.146L355.335,6.226L354.843,11.206L362.262,9.264L356.886,14.775L361.407,16.836L356.886,18.896L362.262,24.407L354.843,22.465L355.335,27.445L351.306,24.526L349.264,31.979L347.221,24.526L343.192,27.445L343.684,22.465L336.265,24.407L341.642,18.896L337.121,16.836L341.642,14.775L336.265,9.264L343.684,11.206L343.192,6.226L347.221,9.146L349.264,1.692Z" style="fill:rgb(0,166,80);"/>
    </g>
    <g transform="matrix(1,0,0,1,0,193.329)">
        <path d="M317.213,1.692L319.255,9.146L323.284,6.226L322.792,11.206L330.211,9.264L324.835,14.775L329.356,16.836L324.835,18.896L330.211,24.407L322.792,22.465L323.284,27.445L319.255,24.526L317.213,31.979L315.17,24.526L311.141,27.445L311.633,22.465L304.214,24.407L309.591,18.896L305.07,16.836L309.591,14.775L304.214,9.264L311.633,11.206L311.141,6.226L315.17,9.146L317.213,1.692Z" style="fill:rgb(26,93,65);"/>
    </g>
    <g transform="matrix(1,0,0,1,0,71.7616)">
        <path d="M232.978,67.104L234.396,72.28L237.194,70.252L236.852,73.71L242.004,72.362L238.27,76.189L241.41,77.619L238.27,79.05L242.004,82.877L236.852,81.528L237.194,84.986L234.396,82.959L232.978,88.134L231.56,82.959L228.762,84.986L229.104,81.528L223.952,82.877L227.685,79.05L224.546,77.619L227.685,76.189L223.952,72.362L229.104,73.71L228.762,70.252L231.56,72.28L232.978,67.104Z" style="fill:rgb(46,48,146);"/>
    </g>
    <g transform="matrix(1,0,0,1,0,71.703)">
        <path d="M301.17,67.134L302.588,72.309L305.385,70.281L305.044,73.74L310.195,72.391L306.462,76.218L309.601,77.649L306.462,79.079L310.195,82.906L305.044,81.557L305.385,85.016L302.588,82.988L301.17,88.164L299.752,82.988L296.954,85.016L297.295,81.557L292.144,82.906L295.877,79.079L292.738,77.649L295.877,76.218L292.144,72.391L297.295,73.74L296.954,70.281L299.752,72.309L301.17,67.134Z" style="fill:rgb(0,125,197);"/>
    </g>
    <g transform="matrix(1,0,0,1,0,8.7601)">
        <path d="M264.98,98.605L266.398,103.78L269.196,101.753L268.855,105.211L274.006,103.863L270.273,107.689L273.412,109.12L270.273,110.551L274.006,114.378L268.855,113.029L269.196,116.487L266.398,114.46L264.98,119.635L263.562,114.46L260.764,116.487L261.106,113.029L255.955,114.378L259.688,110.551L256.549,109.12L259.688,107.689L255.955,103.863L261.106,105.211L260.764,101.753L263.562,103.78L264.98,98.605Z" style="fill:rgb(0,90,170);"/>
    </g>
    <g transform="matrix(1,0,0,1,0,12.531)">
        <path d="M228.55,92.091L230.593,99.545L234.622,96.625L234.13,101.605L241.549,99.663L236.172,105.174L240.693,107.235L236.172,109.295L241.549,114.806L234.13,112.864L234.622,117.845L230.593,114.925L228.55,122.378L226.508,114.925L222.479,117.845L222.971,112.864L215.552,114.806L220.928,109.295L216.407,107.235L220.928,105.174L215.552,99.663L222.971,101.605L222.479,96.625L226.508,99.545L228.55,92.091Z" style="fill:rgb(0,110,124);"/>
    </g>
    <g transform="matrix(1,0,0,1,0,62.2782)">
        <path d="M264.96,67.218L267.003,74.671L271.032,71.751L270.54,76.731L277.959,74.789L272.582,80.3L277.103,82.361L272.582,84.422L277.959,89.933L270.54,87.99L271.032,92.971L267.003,90.051L264.96,97.504L262.918,90.051L258.889,92.971L259.381,87.99L251.962,89.933L257.338,84.422L252.817,82.361L257.338,80.3L251.962,74.789L259.381,76.731L258.889,71.751L262.918,74.671L264.96,67.218Z" style="fill:rgb(0,166,80);"/>
    </g>
    <g transform="matrix(1,0,0,1,0,11.789)">
        <path d="M300.373,92.462L302.415,99.916L306.444,96.996L305.952,101.976L313.371,100.034L307.995,105.545L312.516,107.606L307.995,109.666L313.371,115.177L305.952,113.235L306.444,118.216L302.415,115.296L300.373,122.749L298.33,115.296L294.301,118.216L294.793,113.235L287.374,115.177L292.751,109.666L288.23,107.606L292.751,105.545L287.374,100.034L294.793,101.976L294.301,96.996L298.33,99.916L300.373,92.462Z" style="fill:rgb(26,93,65);"/>
    </g>
    <g transform="matrix(1,7.38055e-05,7.38055e-05,-1,-0.0103501,226.972)">
        <path d="M264.491,140.248L481.277,140.248" style="fill:none;stroke:black;stroke-width:1px;"/>
    </g>
    <g transform="matrix(0.00264468,-0.999997,-0.999997,-0.00264468,523.636,449.282)">
        <path d="M361.909,151.37L384.597,151.37" style="fill:none;stroke:black;stroke-width:1px;"/>
    </g>
    <g transform="matrix(-0.00571684,-0.999984,-0.999984,0.00571684,402.951,353.823)">
        <path d="M261.289,136.915L267.762,136.915" style="fill:none;stroke:black;stroke-width:1px;"/>
    </g>
    <g transform="matrix(-0.00587225,-0.999983,-0.999983,0.00587225,621.176,570.508)">
        <path d="M478.1,137.016L484.572,137.016" style="fill:none;stroke:black;stroke-width:1px;"/>
    </g>
    <g transform="matrix(0.999996,0.00294608,0.00294608,-0.999996,-0.143421,225.58)">
        <path d="M426.409,49.392L537.132,49.392" style="fill:none;stroke:black;stroke-width:1px;"/>
    </g>
    <g transform="matrix(-0.00444029,-0.99999,-0.99999,0.00444029,538.539,656.009)">
        <path d="M478.657,53.572L486.99,53.572" style="fill:none;stroke:black;stroke-width:1px;"/>
    </g>
    <g transform="matrix(-0.00444035,-0.99999,-0.99999,0.00444035,473.288,608.167)">
        <path d="M422.217,45.012L430.55,45.012" style="fill:none;stroke:black;stroke-width:1px;"/>
    </g>
    <g transform="matrix(-0.00444035,-0.99999,-0.99999,0.00444035,584.805,719.008)">
        <path d="M533.15,45.103L541.483,45.103" style="fill:none;stroke:black;stroke-width:1px;"/>
    </g>
    <g transform="matrix(0.999996,0.00295679,0.00295679,-0.999996,-0.144937,226.226)">
        <path d="M206.381,49.405L316.872,49.405" style="fill:none;stroke:black;stroke-width:1px;"/>
    </g>
    <g transform="matrix(-0.00431361,-0.999991,-0.999991,0.00431361,317.401,435.852)">
        <path d="M258.504,53.592L266.85,53.592" style="fill:none;stroke:black;stroke-width:1px;"/>
    </g>
    <g transform="matrix(-0.00443343,-0.99999,-0.99999,0.00443343,252.289,388.136)">
        <path d="M202.184,45.018L210.529,45.018" style="fill:none;stroke:black;stroke-width:1px;"/>
    </g>
    <g transform="matrix(-0.00443343,-0.99999,-0.99999,0.00443343,363.571,498.744)">
        <path d="M312.884,45.109L321.229,45.109" style="fill:none;stroke:black;stroke-width:1px;"/>
    </g>
</svg>
